<svg xmlns="http://www.w3.org/2000/svg" version="1.1" xmlns:xlink="http://www.w3.org/1999/xlink" xmlns:svgjs="http://svgjs.com/svgjs" width="512" height="512" x="0" y="0" viewBox="0 0 512 512" style="enable-background:new 0 0 512 512" xml:space="preserve" class=""><g><path d="M420.092 82.267h69.394v57.289h-69.394zM454.687 283.355v161.767c0 20.264-16.427 36.69-36.69 36.69h-80.234c-20.264 0-36.69-16.427-36.69-36.69V74.848c0-24.666-19.996-44.661-44.661-44.661h-80.234c-24.666 0-44.661 19.996-44.661 44.661v137.301" style="stroke-width:20;stroke-linecap:round;stroke-linejoin:round;stroke-miterlimit:10;" fill="none" stroke="#242424" stroke-width="20" stroke-linecap="round" stroke-linejoin="round" stroke-miterlimit="10" data-original="#000000" opacity="1" class=""></path><path d="m497.728 221.041-8.242 21.129h-69.394l-8.241-21.129a62.5 62.5 0 0 1-4.272-22.71v-58.775H502v58.775c0 7.77-1.449 15.471-4.272 22.71zM430.754 242.17h48.07v41.185h-48.07zM172.29 444.064c45.223-17.14 77.374-60.854 77.374-112.083 0-66.181-53.651-119.832-119.832-119.832S10 265.8 10 331.981c0 50.851 31.676 94.3 76.372 111.702" style="stroke-width:20;stroke-linecap:round;stroke-linejoin:round;stroke-miterlimit:10;" fill="none" stroke="#242424" stroke-width="20" stroke-linecap="round" stroke-linejoin="round" stroke-miterlimit="10" data-original="#000000" opacity="1" class=""></path><path d="m106.414 259.627-23.863 75.117c-2.08 6.547 2.21 12.657 8.888 12.657h29.832l-19.414 51.211c-2.643 6.973 1.818 13.788 9.025 13.788h0c3.639 0 7.253-1.799 9.656-4.806l56.976-71.317c2.211-2.768 3.604-6.039 3.997-9.389v0c1.081-9.207-5.507-16.671-14.715-16.671H138.66l19.553-50.589h-51.799zM129.832 451.813h0" style="stroke-width:20;stroke-linecap:round;stroke-linejoin:round;stroke-miterlimit:10;" fill="none" stroke="#242424" stroke-width="20" stroke-linecap="round" stroke-linejoin="round" stroke-miterlimit="10" data-original="#000000" opacity="1" class=""></path></g></svg>