<svg xmlns="http://www.w3.org/2000/svg" version="1.1" xmlns:xlink="http://www.w3.org/1999/xlink" xmlns:svgjs="http://svgjs.com/svgjs" width="512" height="512" x="0" y="0" viewBox="0 0 128 128" style="enable-background:new 0 0 512 512" xml:space="preserve" class=""><g><path d="M106.4 27.763a7.57 7.57 0 0 0 .6-2.963 7.39 7.39 0 0 0-2.726-5.735 63.874 63.874 0 0 0-80.546 0A7.39 7.39 0 0 0 21 24.8a7.578 7.578 0 0 0 .6 2.962A58.332 58.332 0 0 0 5.214 68.451v28.8a7.978 7.978 0 0 0 7.969 7.959h5.335v.315a8.2 8.2 0 0 0 8.188 8.188h3.652a4.482 4.482 0 0 0 .983-.116v2.248a7.4 7.4 0 0 0 7.387 7.387h4.49a7.4 7.4 0 0 0 7.388-7.387V78.632a7.4 7.4 0 0 0-7.388-7.387h-4.49a7.4 7.4 0 0 0-7.387 7.387v2.247a4.422 4.422 0 0 0-.983-.116h-3.651a8.146 8.146 0 0 0-5.1 1.793V68.451a42.009 42.009 0 0 1 12.284-29.835 7.465 7.465 0 0 0 7.669-.991 36.622 36.622 0 0 1 44.879 0 7.552 7.552 0 0 0 4.689 1.644 7.427 7.427 0 0 0 2.98-.654 42.011 42.011 0 0 1 12.285 29.836v14.105a8.143 8.143 0 0 0-5.1-1.793H97.64a4.42 4.42 0 0 0-.982.116v-2.247a7.4 7.4 0 0 0-7.388-7.387h-4.49a7.4 7.4 0 0 0-7.388 7.387v37.21a7.4 7.4 0 0 0 7.388 7.387h4.49a7.4 7.4 0 0 0 7.388-7.387v-2.248a4.48 4.48 0 0 0 .982.116h3.653a8.2 8.2 0 0 0 8.188-8.188v-.315h5.334a7.978 7.978 0 0 0 7.97-7.959v-28.8A58.338 58.338 0 0 0 106.4 27.763zm-93.216 73.944a4.47 4.47 0 1 1 0-8.94h5.335v8.94zm21.658-23.075a3.891 3.891 0 0 1 3.887-3.887h4.49a3.891 3.891 0 0 1 3.888 3.887v37.21a3.892 3.892 0 0 1-3.888 3.887h-4.49a3.892 3.892 0 0 1-3.887-3.887zM22.019 88.951a4.693 4.693 0 0 1 4.688-4.688h3.652a.984.984 0 0 1 .983.983v23.982a.983.983 0 0 1-.983.982h-3.652a4.693 4.693 0 0 1-4.688-4.688zm-3.913-20.5v20.816h-4.922a7.927 7.927 0 0 0-4.47 1.375V68.451a54.848 54.848 0 0 1 14.993-37.826l.052.047 7.2 5.929a45.468 45.468 0 0 0-12.853 31.85zm70.5-33.574a40.123 40.123 0 0 0-49.215 0 4.012 4.012 0 0 1-5.064-.033l-8.345-6.873a4.059 4.059 0 0 1-1.482-3.158 3.906 3.906 0 0 1 1.434-3.031 60.375 60.375 0 0 1 76.129 0 3.9 3.9 0 0 1 1.435 3.031 4.061 4.061 0 0 1-1.483 3.158l-8.345 6.873a4.009 4.009 0 0 1-5.063.033zm8.436 1.723 7.2-5.929c.018-.015.033-.032.051-.047a54.853 54.853 0 0 1 14.994 37.826v22.192a7.93 7.93 0 0 0-4.471-1.375h-4.922V68.451A45.472 45.472 0 0 0 97.042 36.6zm-3.884 79.241a3.892 3.892 0 0 1-3.888 3.887h-4.49a3.892 3.892 0 0 1-3.888-3.887V78.632a3.891 3.891 0 0 1 3.888-3.887h4.49a3.891 3.891 0 0 1 3.888 3.887v37.21zm12.823-10.32a4.693 4.693 0 0 1-4.688 4.688H97.64a.982.982 0 0 1-.982-.982V85.246a.983.983 0 0 1 .982-.983h3.653a4.693 4.693 0 0 1 4.688 4.688v16.571zm8.834-3.815h-5.334v-8.94h5.334a4.47 4.47 0 1 1 0 8.94z" fill="#242424" data-original="#000000" class="" opacity="1"></path><path d="M87.767 21.212a55.594 55.594 0 0 0-47.494-.022 1.75 1.75 0 0 0 1.533 3.147 52.1 52.1 0 0 1 44.426.019 1.726 1.726 0 0 0 .767.178 1.75 1.75 0 0 0 .768-3.322z" fill="#242424" data-original="#000000" class="" opacity="1"></path></g></svg>