<svg xmlns="http://www.w3.org/2000/svg" version="1.1" xmlns:xlink="http://www.w3.org/1999/xlink" xmlns:svgjs="http://svgjs.com/svgjs" width="512" height="512" x="0" y="0" viewBox="0 0 72 72" style="enable-background:new 0 0 512 512" xml:space="preserve" class=""><g><g data-name="Layer 25"><path d="M52 13H30a9.01 9.01 0 0 0-9 9v28a9.01 9.01 0 0 0 9 9h22a9.01 9.01 0 0 0 9-9V22a9.01 9.01 0 0 0-9-9zm7 37a7.008 7.008 0 0 1-7 7H30a7.008 7.008 0 0 1-7-7V22a7.008 7.008 0 0 1 7-7h22a7.008 7.008 0 0 1 7 7zM15 30a4.004 4.004 0 0 0-4 4v4a4 4 0 0 0 8 0v-4a4.004 4.004 0 0 0-4-4zm2 8a2 2 0 0 1-4 0v-4a2 2 0 0 1 4 0zM29 11h24a1 1 0 0 0 1-1V8a5.006 5.006 0 0 0-5-5H33a5.006 5.006 0 0 0-5 5v2a1 1 0 0 0 1 1zm1-3a3.003 3.003 0 0 1 3-3h16a3.003 3.003 0 0 1 3 3v1H30zM53 61H29a1 1 0 0 0-1 1v2a5.006 5.006 0 0 0 5 5h16a5.006 5.006 0 0 0 5-5v-2a1 1 0 0 0-1-1zm-1 3a3.003 3.003 0 0 1-3 3H33a3.003 3.003 0 0 1-3-3v-1h22z" fill="#242424" data-original="#000000" opacity="1" class=""></path><path d="M46 44h-5a1 1 0 0 0-1 1v4a1 1 0 0 1-2 0V39a3 3 0 0 0-6 0v5h-4a1 1 0 0 0 0 2h5a1 1 0 0 0 1-1v-6a1 1 0 0 1 2 0v10a3 3 0 0 0 6 0v-3h4a1 1 0 0 0 0-2zM50 20a3.99 3.99 0 0 0-3 1.357A3.998 3.998 0 0 0 40 24c0 3.694 5.731 8.277 6.385 8.788a.999.999 0 0 0 1.23 0C48.27 32.278 54 27.694 54 24a4.004 4.004 0 0 0-4-4zm-3 10.71c-2.15-1.81-5-4.84-5-6.71a2 2 0 0 1 4 0 1 1 0 0 0 2 0 2 2 0 0 1 4 0c0 1.87-2.85 4.9-5 6.71z" fill="#242424" data-original="#000000" opacity="1" class=""></path></g></g></svg>